<svg xmlns="http://www.w3.org/2000/svg" viewBox="0 11.100000381469727 239.5 31.850000381469727" data-asc="0.851" width="239.5" height="31.850000381469727"><defs/><g fill="#000000"><g transform="translate(0, 0)"><path d="M12.40 42.70Q11.85 42.75 11.15 42.45Q10.45 42.15 9.93 41.35Q9.40 40.55 9.40 39.10Q9.40 37.90 9.85 36.20Q9.25 37.15 8.30 38.52Q7.35 39.90 6.25 40.95Q5.30 41.85 4.45 42.25Q3.60 42.65 2.90 42.65Q1.60 42.65 0.80 41.47Q0 40.30 0 38.40Q0 36.40 1 33.85Q2 31.30 4.25 28.55Q5.70 26.80 7.77 25.72Q9.85 24.65 11.85 24.65Q13 24.65 14.05 25.02Q15.10 25.40 15.90 26.25Q16.25 26.60 16.25 27.05Q16.25 27.35 16 27.55Q15.75 27.75 15.35 27.65Q14.80 25.90 13 25.90Q12.15 25.90 11.05 26.45Q9.35 27.35 7.52 29.40Q5.70 31.45 4.35 33.65Q4.15 33.95 3.73 34.80Q3.30 35.65 2.90 36.70Q2.50 37.75 2.35 38.75Q2.30 39.05 2.30 39.17Q2.30 39.30 2.30 39.55Q2.30 41.20 3.55 41.20Q5.05 41.20 6.95 39Q8.25 37.40 9.30 35.65Q10.35 33.90 11.45 31.90Q12.20 30.55 12.85 29.65Q13.50 28.75 14.70 28.75Q15.25 28.75 15.80 28.90Q16.35 29.05 16.95 28.95Q16.55 29.35 15.88 30.45Q15.20 31.55 14.45 32.95Q13.70 34.35 13.10 35.80Q12.50 37.25 12.25 38.30Q12.20 38.60 12.13 39.15Q12.05 39.70 12.05 39.95Q12.05 41.35 12.85 41.35Q13.65 41.35 14.57 40.40Q15.50 39.45 16.40 38.05Q17.30 36.65 18.05 35.22Q18.80 33.80 19.25 32.90Q19.45 32.40 19.85 32.40Q20.10 32.40 20.10 32.75Q20.10 32.90 19.95 33.30Q19.35 34.55 18.50 36.13Q17.65 37.70 16.65 39.17Q15.65 40.65 14.57 41.63Q13.50 42.60 12.40 42.70ZM30.25 42.55Q28.90 42.55 28.00 41.20Q27.75 40.80 27.55 40.15Q27.35 39.50 27.35 38.70Q27.35 38.25 27.40 37.77Q27.45 37.30 27.60 36.80Q26.90 37.90 25.98 39.22Q25.05 40.55 23.88 41.52Q22.70 42.50 21.25 42.50Q20.75 42.50 20.20 42.35Q18.85 41.95 18.28 40.95Q17.70 39.95 17.70 38.55Q17.70 37 18.33 35.15Q18.95 33.30 19.93 31.55Q20.90 29.80 21.95 28.55Q23.45 26.80 25.40 25.75Q27.35 24.70 29.35 24.70Q31.15 24.70 32.75 25.65Q33.50 24.25 34.35 22.52Q35.20 20.80 36.05 19.10Q36.90 17.40 37.55 15.97Q38.20 14.55 38.55 13.80Q39.30 12.05 39.98 11.57Q40.65 11.10 41.60 11.10Q42.15 11.10 42.83 11.22Q43.50 11.35 44.15 11.30Q43.85 11.60 42.93 13.02Q42 14.45 40.75 16.65Q39.50 18.85 38.08 21.47Q36.65 24.10 35.28 26.77Q33.90 29.45 32.73 31.82Q31.55 34.20 30.85 35.90Q30.65 36.30 30.28 37.52Q29.90 38.75 29.90 39.65Q29.90 40.30 30.20 40.77Q30.50 41.25 31.20 41.25Q32.15 41.25 33.13 40.27Q34.10 39.30 35 37.88Q35.90 36.45 36.60 35.07Q37.30 33.70 37.65 32.90Q37.90 32.35 38.25 32.35Q38.55 32.35 38.55 32.80Q38.55 32.85 38.55 32.97Q38.55 33.10 38.45 33.25Q38 34.30 37.23 35.85Q36.45 37.40 35.40 38.95Q34.35 40.50 33.05 41.52Q31.75 42.55 30.25 42.55M21.60 41.05Q22.30 41.05 23.35 40.27Q24.40 39.50 25.60 37.80Q27.00 35.80 28.80 32.80Q30.60 29.80 32.35 26.45Q31.70 25.85 30.85 25.85Q29.45 25.85 27.73 27.15Q26.00 28.45 24.38 30.45Q22.75 32.45 21.65 34.50Q20.90 35.90 20.58 37.05Q20.25 38.20 20.25 39.05Q20.25 41.05 21.60 41.05ZM43.25 22.25Q42.50 22.25 42.03 21.72Q41.55 21.20 41.55 20.45Q41.55 19.50 42.30 18.80Q43.05 18.10 43.95 18.10Q44.75 18.10 45.25 18.60Q45.75 19.10 45.75 19.80Q45.75 20.75 45 21.50Q44.25 22.25 43.25 22.25M39.20 42.55Q37.35 42.55 36.60 41.47Q35.85 40.40 35.85 39Q35.85 38.25 36.02 37.47Q36.20 36.70 36.45 36.05L39.80 27.50Q39.95 27.10 39.95 26.80Q39.95 26.30 39.70 25.92Q39.45 25.55 39.35 25.40L42.10 25.30Q42.85 25.25 43.18 25.47Q43.50 25.70 43.50 26.00Q43.50 26.30 43.15 27.10L39 36.85Q39 36.85 38.73 37.47Q38.45 38.10 38.40 38.30Q38.25 39.05 38.20 39.25Q38.15 39.45 38.15 39.50Q38.15 39.55 38.15 39.90Q38.15 40.55 38.48 41Q38.80 41.45 39.60 41.45Q40.10 41.45 40.75 41.15Q41.40 40.85 41.70 40.55Q42.95 39.25 44.18 37.13Q45.40 35 46.45 32.90Q46.65 32.40 46.95 32.40Q47.20 32.40 47.20 32.75Q47.20 32.95 47.05 33.35Q46.55 34.40 45.80 35.95Q45.05 37.50 44.03 39.02Q43 40.55 41.80 41.55Q40.60 42.55 39.20 42.55ZM41.70 42.95Q43.50 39.30 45.18 35.72Q46.85 32.15 48.60 28.90Q49.60 27.10 50.28 26.37Q50.95 25.65 52.10 25.65Q52.50 25.65 52.95 25.77Q53.40 25.90 53.85 25.90Q54.15 25.90 54.30 25.85Q53.60 26.25 52.50 27.82Q51.40 29.40 50.25 31.45Q49.10 33.50 48.20 35.30Q49.15 34.15 50.18 33Q51.20 31.85 52.45 30.80Q53.65 29.75 55.33 28.62Q57.00 27.50 58.60 26.75Q60.20 26.00 61.15 26.00Q61.50 26.00 61.65 26.05Q61.65 26.05 61.10 27.02Q60.55 28.00 59.73 29.57Q58.90 31.15 58.05 32.92Q57.20 34.70 56.53 36.32Q55.85 37.95 55.65 39.05Q55.50 39.70 55.50 40.25Q55.50 41.05 55.80 41.30Q56.10 41.55 56.45 41.55Q57.40 41.55 58.45 40.52Q59.50 39.50 60.48 38Q61.45 36.50 62.23 35.07Q63.00 33.65 63.35 32.90Q63.55 32.50 63.65 32.42Q63.75 32.35 63.95 32.35Q64.25 32.35 64.25 32.75Q64.25 33 64.10 33.30Q63.50 34.45 62.68 36.05Q61.85 37.65 60.80 39.17Q59.75 40.70 58.50 41.72Q57.25 42.75 55.80 42.75Q54.80 42.75 53.73 42.05Q52.65 41.35 52.65 39.45Q52.65 38.90 52.75 38.27Q52.85 37.65 53.10 36.90Q53.50 35.90 54.05 34.75Q54.60 33.60 55.85 31.60Q56.20 31.05 56.28 30.75Q56.35 30.45 56.35 30.25Q56.35 29.65 55.80 29.65Q55.35 29.65 54.48 30.15Q53.60 30.65 52.30 31.90Q51.05 33.10 49.33 35.30Q47.60 37.50 45.35 41.80Q45.00 42.45 44.58 42.50Q44.15 42.55 43.40 42.60Q42.90 42.65 42.45 42.67Q42.00 42.70 41.70 42.95ZM74.05 42.70Q73.50 42.75 72.80 42.45Q72.10 42.15 71.58 41.35Q71.05 40.55 71.05 39.10Q71.05 37.90 71.50 36.20Q70.90 37.15 69.95 38.52Q69 39.90 67.90 40.95Q66.95 41.85 66.10 42.25Q65.25 42.65 64.55 42.65Q63.25 42.65 62.45 41.47Q61.65 40.30 61.65 38.40Q61.65 36.40 62.65 33.85Q63.65 31.30 65.90 28.55Q67.35 26.80 69.42 25.72Q71.50 24.65 73.50 24.65Q74.65 24.65 75.70 25.02Q76.75 25.40 77.55 26.25Q77.90 26.60 77.90 27.05Q77.90 27.35 77.65 27.55Q77.40 27.75 77 27.65Q76.45 25.90 74.65 25.90Q73.80 25.90 72.70 26.45Q71 27.35 69.17 29.40Q67.35 31.45 66 33.65Q65.80 33.95 65.38 34.80Q64.95 35.65 64.55 36.70Q64.15 37.75 64 38.75Q63.95 39.05 63.95 39.17Q63.95 39.30 63.95 39.55Q63.95 41.20 65.20 41.20Q66.70 41.20 68.60 39Q69.90 37.40 70.95 35.65Q72 33.90 73.10 31.90Q73.85 30.55 74.50 29.65Q75.15 28.75 76.35 28.75Q76.90 28.75 77.45 28.90Q78 29.05 78.60 28.95Q78.20 29.35 77.53 30.45Q76.85 31.55 76.10 32.95Q75.35 34.35 74.75 35.80Q74.15 37.25 73.90 38.30Q73.85 38.60 73.78 39.15Q73.70 39.70 73.70 39.95Q73.70 41.35 74.50 41.35Q75.30 41.35 76.23 40.40Q77.15 39.45 78.05 38.05Q78.95 36.65 79.70 35.22Q80.45 33.80 80.90 32.90Q81.10 32.40 81.50 32.40Q81.75 32.40 81.75 32.75Q81.75 32.90 81.60 33.30Q81 34.55 80.15 36.13Q79.30 37.70 78.30 39.17Q77.30 40.65 76.23 41.63Q75.15 42.60 74.05 42.70ZM89.05 42.95Q91.15 38.65 93.43 33.92Q95.70 29.20 98.10 24.40Q100.50 19.60 102.85 15.25Q103.70 13.75 104.43 12.90Q105.15 12.05 106.35 12.05Q106.80 12.05 107.40 12.20Q108.00 12.35 108.55 12.25Q107.90 12.95 106.78 14.70Q105.65 16.45 104.28 18.90Q102.90 21.35 101.38 24.17Q99.85 27.00 98.38 29.87Q96.90 32.75 95.65 35.25Q96.65 33.95 97.70 32.80Q98.75 31.65 99.75 30.80Q100.85 29.80 102.53 28.70Q104.20 27.60 105.88 26.80Q107.55 26.00 108.55 26.00Q108.90 26.00 109.05 26.05Q109.05 26.05 108.50 27.05Q107.95 28.05 107.13 29.60Q106.30 31.15 105.43 32.95Q104.55 34.75 103.90 36.38Q103.25 38 103.05 39.05Q102.90 39.85 102.90 40.40Q102.90 41.20 103.20 41.47Q103.50 41.75 103.85 41.75Q104.70 41.75 105.70 40.70Q106.70 39.65 107.65 38.13Q108.60 36.60 109.38 35.15Q110.15 33.70 110.55 32.90Q110.85 32.35 111.15 32.35Q111.45 32.35 111.45 32.75Q111.45 32.95 111.30 33.35Q110.65 34.65 109.83 36.27Q109.00 37.90 107.98 39.38Q106.95 40.85 105.73 41.80Q104.50 42.75 103.10 42.75Q102.10 42.75 101.05 42.05Q100.00 41.35 100.00 39.50Q100.00 38.95 100.10 38.32Q100.20 37.70 100.45 36.90Q100.75 35.90 101.45 34.67Q102.15 33.45 103.25 31.60Q103.75 30.75 103.75 30.25Q103.75 29.65 103.15 29.65Q102.65 29.65 101.80 30.15Q100.95 30.65 99.65 31.90Q98.40 33.10 96.55 35.40Q94.70 37.70 92.60 41.85Q92.25 42.50 91.83 42.52Q91.40 42.55 90.70 42.60Q90.25 42.65 89.80 42.67Q89.35 42.70 89.05 42.95ZM112.95 42.55Q111.05 42.55 110.15 41.27Q109.25 40 109.25 38.15Q109.25 35.90 110.30 33.45Q111.30 31.15 112.85 29.25Q114.40 27.35 116.20 26.17Q118.00 25.00 119.70 25.00Q121.60 25.00 122.50 26.25Q123.40 27.50 123.40 29.40Q123.40 31.70 122.35 34.10Q121.75 35.45 120.65 37.07Q119.55 38.70 118.15 40.05Q118.45 40.60 119.00 40.97Q119.55 41.35 120.50 41.35Q121.70 41.35 122.78 40.35Q123.85 39.35 124.75 37.92Q125.65 36.50 126.35 35.05Q127.05 33.60 127.50 32.70Q127.65 32.40 128 32.40Q128.20 32.40 128.30 32.57Q128.40 32.75 128.25 33.10Q127.95 33.85 127.25 35.32Q126.55 36.80 125.55 38.38Q124.55 39.95 123.25 41.05Q121.95 42.15 120.35 42.15Q119.25 42.15 118.45 41.77Q117.65 41.40 117.15 40.85Q116.10 41.65 115.05 42.10Q114.00 42.55 112.95 42.55M113.70 41.45Q115.05 41.45 116.60 40.15Q116.20 39.55 116.00 38.90Q115.80 38.25 115.80 37.70Q115.80 36.80 116.23 36.15Q116.65 35.50 117.55 35.50Q118.20 35.50 118.63 35.97Q119.05 36.45 119.05 37.05Q119.05 37.20 119.03 37.32Q119.00 37.45 118.95 37.60Q119.80 36.45 120.55 34.90Q122.20 31.35 122.20 29.05Q122.20 27.90 121.75 27.25Q121.30 26.60 120.40 26.60Q119.35 26.60 118.13 27.50Q116.90 28.40 115.78 29.90Q114.65 31.40 113.80 33.25Q113.00 34.95 112.53 36.52Q112.05 38.10 112.05 39.25Q112.05 40.25 112.45 40.85Q112.85 41.45 113.70 41.45ZM128.90 42.55Q128.35 42.55 127.58 42.30Q126.80 42.05 126.23 41.38Q125.65 40.70 125.65 39.35Q125.65 38.05 126.28 36.82Q126.90 35.60 127.45 34.45Q127.30 34.45 127.13 34.35Q126.95 34.25 126.95 34.05Q126.95 33.85 127.05 33.65Q127.25 33.25 127.50 32.80Q127.75 32.35 127.95 31.85Q128.70 30.30 129.45 28.87Q130.20 27.45 130.75 26.35Q131.30 25.25 132.65 25.25L135.75 25.25Q134.90 25.90 134.23 26.67Q133.55 27.45 132.55 29.50Q132.55 29.50 132.20 30.20Q131.85 30.90 131.33 31.97Q130.80 33.05 130.28 34.15Q129.75 35.25 129.40 36Q128.75 37.40 128.55 38.22Q128.35 39.05 128.35 39.75Q128.35 41.40 129.45 41.40Q130.65 41.40 132.35 39.45Q133.75 37.80 135.10 35.50Q136.45 33.20 137.68 30.75Q138.90 28.30 139.85 26.35Q140.40 25.25 141.80 25.25L144.55 25.25Q143.80 25.85 143.30 26.37Q142.80 26.90 142.33 27.77Q141.85 28.65 141.05 30.25Q140.40 31.60 139.68 33.13Q138.95 34.65 138.40 36Q137.85 37.35 137.70 38.20Q137.65 38.70 137.60 38.95Q137.55 39.20 137.55 39.50Q137.55 40.45 137.88 40.85Q138.20 41.25 138.65 41.25Q139.85 41.25 141.08 39.90Q142.30 38.55 143.43 36.60Q144.55 34.65 145.35 32.90Q145.65 32.35 145.90 32.35Q146.20 32.35 146.20 32.70Q146.20 32.95 146 33.30Q145.45 34.50 144.65 36.05Q143.85 37.60 142.85 39.10Q141.85 40.60 140.65 41.57Q139.45 42.55 138.05 42.55Q136.80 42.55 136 41.63Q135.20 40.70 135.20 39Q135.20 37.65 135.70 36.10Q134.85 37.60 133.75 39.10Q132.65 40.60 131.40 41.57Q130.15 42.55 128.90 42.55ZM146.35 42.75Q143.90 42.75 142.88 41.47Q141.85 40.20 141.85 38.80Q141.85 37.65 142.43 36.70Q143 35.75 143.80 35.70Q144.80 33.75 145.97 31.45Q147.15 29.15 148.15 27.00Q148.85 25.55 149.93 24.20Q151 22.85 152.30 22.65L152.80 22.65Q153.20 22.65 153.53 22.70Q153.85 22.75 154.20 22.90Q154.75 23.15 154.75 23.65Q154.75 23.95 154.40 23.95Q154.25 23.95 154 23.80Q153.40 23.55 152.95 23.55Q152.65 23.55 152.40 23.70Q151.45 24.20 151.08 25.10Q150.70 26.00 150.70 27.00Q150.70 27.80 150.88 28.62Q151.05 29.45 151.30 30.10Q151.85 31.50 152.47 32.85Q153.10 34.20 153.10 35.75Q153.10 37.25 152.10 38.92Q151.10 40.60 149.55 41.60L149.90 41.65Q150.15 41.70 150.25 41.70Q150.35 41.70 150.40 41.70Q151.55 41.70 152.58 41.02Q153.60 40.35 154.40 39.35Q155.20 38.35 156.22 36.55Q157.25 34.75 158.20 32.75Q158.35 32.50 158.55 32.50Q158.80 32.50 158.93 32.67Q159.05 32.85 158.95 33.10Q158.30 34.50 157.47 36.13Q156.65 37.75 155.60 39.22Q154.55 40.70 153.18 41.63Q151.80 42.55 150.10 42.55Q149.70 42.55 149.25 42.50Q148.80 42.45 148.35 42.30Q147.85 42.50 147.33 42.63Q146.80 42.75 146.35 42.75M147.85 41.25Q148.70 40.55 149.38 39.20Q150.05 37.85 150.05 35.65Q150.05 33.70 149.65 31.50Q149.25 29.30 149.25 27.60Q149.25 27.25 149.28 26.97Q149.30 26.70 149.35 26.45Q148.70 27.80 147.85 29.57Q147 31.35 146.15 33Q145.30 34.65 144.70 35.80Q144.70 35.80 144.97 35.82Q145.25 35.85 145.50 36.17Q145.75 36.50 145.70 37.45Q145.65 38.70 146.28 39.77Q146.90 40.85 147.85 41.25M145.95 41.95Q146.25 41.95 146.50 41.88Q146.75 41.80 146.95 41.75Q146.20 41.20 145.63 40.27Q145.05 39.35 144.95 37.90Q144.05 38.85 144.05 39.95Q144.05 40.75 144.55 41.35Q145.05 41.95 145.95 41.95ZM161.60 42.75Q159.75 42.75 158.28 41.55Q156.80 40.35 156.80 37.90Q156.80 35.65 157.90 33.07Q159 30.50 160.70 28.55Q162.15 26.85 163.95 25.75Q165.75 24.65 167.35 24.65Q168.45 24.65 169.25 25.25Q170.10 25.90 170.10 27.10Q170.10 28.35 169.15 29.85Q168.20 31.35 166.45 32.65Q165.70 33.20 164.55 33.70Q163.40 34.20 162.25 34.52Q161.10 34.85 160.35 34.85Q160.10 35.45 159.88 36.45Q159.65 37.45 159.65 38.50Q159.65 39.75 160.15 40.75Q160.65 41.75 162 41.75Q163.65 41.75 165 40.80Q166.35 39.85 167.40 38.42Q168.45 37 169.18 35.55Q169.90 34.10 170.35 33.10Q170.65 32.40 171.15 32.40Q171.40 32.40 171.40 32.65Q171.40 32.85 171.25 33.15Q170.55 34.65 169.75 36.32Q168.95 38 167.85 39.47Q166.75 40.95 165.22 41.85Q163.70 42.75 161.60 42.75M160.70 33.95Q161.40 33.95 163.05 33.42Q164.70 32.90 166.05 31.75Q167.35 30.60 168.05 29.22Q168.75 27.85 168.75 26.90Q168.75 25.80 167.95 25.80Q167.35 25.80 166.30 26.60Q165.25 27.40 163.70 29.30Q162.75 30.50 161.90 31.90Q161.05 33.30 160.70 33.95ZM165.65 42.95Q167.75 38.65 170.03 33.92Q172.30 29.20 174.70 24.40Q177.10 19.60 179.45 15.25Q180.30 13.75 181.03 12.90Q181.75 12.05 182.95 12.05Q183.40 12.05 184 12.20Q184.60 12.35 185.15 12.25Q184.50 12.95 183.38 14.70Q182.25 16.45 180.88 18.90Q179.50 21.35 177.97 24.17Q176.45 27.00 174.97 29.87Q173.50 32.75 172.25 35.25Q173.25 33.95 174.30 32.80Q175.35 31.65 176.35 30.80Q177.45 29.80 179.13 28.70Q180.80 27.60 182.47 26.80Q184.15 26.00 185.15 26.00Q185.50 26.00 185.65 26.05Q185.65 26.05 185.10 27.05Q184.55 28.05 183.72 29.60Q182.90 31.15 182.03 32.95Q181.15 34.75 180.50 36.38Q179.85 38 179.65 39.05Q179.50 39.85 179.50 40.40Q179.50 41.20 179.80 41.47Q180.10 41.75 180.45 41.75Q181.30 41.75 182.30 40.70Q183.30 39.65 184.25 38.13Q185.20 36.60 185.97 35.15Q186.75 33.70 187.15 32.90Q187.45 32.35 187.75 32.35Q188.05 32.35 188.05 32.75Q188.05 32.95 187.90 33.35Q187.25 34.65 186.43 36.27Q185.60 37.90 184.58 39.38Q183.55 40.85 182.33 41.80Q181.10 42.75 179.70 42.75Q178.70 42.75 177.65 42.05Q176.60 41.35 176.60 39.50Q176.60 38.95 176.70 38.32Q176.80 37.70 177.05 36.90Q177.35 35.90 178.05 34.67Q178.75 33.45 179.85 31.60Q180.35 30.75 180.35 30.25Q180.35 29.65 179.75 29.65Q179.25 29.65 178.40 30.15Q177.55 30.65 176.25 31.90Q175 33.10 173.15 35.40Q171.30 37.70 169.20 41.85Q168.85 42.50 168.43 42.52Q168 42.55 167.30 42.60Q166.85 42.65 166.40 42.67Q165.95 42.70 165.65 42.95ZM189.55 42.55Q187.65 42.55 186.75 41.27Q185.85 40 185.85 38.15Q185.85 35.90 186.90 33.45Q187.90 31.15 189.45 29.25Q191 27.35 192.80 26.17Q194.60 25.00 196.30 25.00Q198.20 25.00 199.10 26.25Q200 27.50 200 29.40Q200 31.70 198.95 34.10Q198.35 35.45 197.25 37.07Q196.15 38.70 194.75 40.05Q195.05 40.60 195.60 40.97Q196.15 41.35 197.10 41.35Q198.30 41.35 199.38 40.35Q200.45 39.35 201.35 37.92Q202.25 36.50 202.95 35.05Q203.65 33.60 204.10 32.70Q204.25 32.40 204.60 32.40Q204.80 32.40 204.90 32.57Q205 32.75 204.85 33.10Q204.55 33.85 203.85 35.32Q203.15 36.80 202.15 38.38Q201.15 39.95 199.85 41.05Q198.55 42.15 196.95 42.15Q195.85 42.15 195.05 41.77Q194.25 41.40 193.75 40.85Q192.70 41.65 191.65 42.10Q190.60 42.55 189.55 42.55M190.30 41.45Q191.65 41.45 193.20 40.15Q192.80 39.55 192.60 38.90Q192.40 38.25 192.40 37.70Q192.40 36.80 192.82 36.15Q193.25 35.50 194.15 35.50Q194.80 35.50 195.22 35.97Q195.65 36.45 195.65 37.05Q195.65 37.20 195.63 37.32Q195.60 37.45 195.55 37.60Q196.40 36.45 197.15 34.90Q198.80 31.35 198.80 29.05Q198.80 27.90 198.35 27.25Q197.90 26.60 197 26.60Q195.95 26.60 194.72 27.50Q193.50 28.40 192.38 29.90Q191.25 31.40 190.40 33.25Q189.60 34.95 189.13 36.52Q188.65 38.10 188.65 39.25Q188.65 40.25 189.05 40.85Q189.45 41.45 190.30 41.45ZM206.40 42.70Q204.30 42.70 203.55 41.57Q202.80 40.45 202.80 38.90Q202.80 37.30 203.25 35.60Q203.70 33.90 204.05 32.75Q204.85 29.95 206.07 26.77Q207.30 23.60 208.78 20.52Q210.25 17.45 211.70 15.00Q212.85 13.05 214.17 12.07Q215.50 11.10 216.50 11.10Q217.30 11.10 217.78 11.67Q218.25 12.25 218.25 13.40Q218.25 14.20 217.97 15.30Q217.70 16.40 217.05 17.80Q215.30 21.70 212.88 25.60Q210.45 29.50 206.75 32.90Q206.55 33.55 206.22 34.42Q205.90 35.30 205.65 36.20Q205.35 37.55 205.35 38.50Q205.35 40.05 205.97 40.82Q206.60 41.60 207.50 41.60Q208.30 41.60 209.20 41.02Q210.10 40.45 210.90 39.35Q212.10 37.60 213.07 35.77Q214.05 33.95 214.55 32.95Q214.85 32.40 215.20 32.40Q215.45 32.40 215.45 32.70Q215.45 32.95 215.30 33.25Q214.85 34.25 214.13 35.82Q213.40 37.40 212.32 38.97Q211.25 40.55 209.78 41.63Q208.30 42.70 206.40 42.70M207.15 31.30Q208.95 29.45 210.65 27.02Q212.35 24.60 213.82 21.97Q215.30 19.35 216.30 17.00Q216.65 16.25 216.88 15.35Q217.10 14.45 217.10 13.85Q217.10 13.15 216.75 13.15Q216.55 13.15 216.15 13.52Q215.75 13.90 215.10 14.80Q214.15 16.05 213.03 18.20Q211.90 20.35 210.75 22.80Q209.60 25.25 208.65 27.52Q207.70 29.80 207.15 31.30ZM225.60 42.55Q224.25 42.55 223.35 41.20Q223.10 40.80 222.90 40.15Q222.70 39.50 222.70 38.70Q222.70 38.25 222.75 37.77Q222.80 37.30 222.95 36.80Q222.25 37.90 221.32 39.22Q220.40 40.55 219.22 41.52Q218.05 42.50 216.60 42.50Q216.10 42.50 215.55 42.35Q214.20 41.95 213.63 40.95Q213.05 39.95 213.05 38.55Q213.05 37 213.68 35.15Q214.30 33.30 215.28 31.55Q216.25 29.80 217.30 28.55Q218.80 26.80 220.75 25.75Q222.70 24.70 224.70 24.70Q226.50 24.70 228.10 25.65Q228.85 24.25 229.70 22.52Q230.55 20.80 231.40 19.10Q232.25 17.40 232.90 15.97Q233.55 14.55 233.90 13.80Q234.65 12.05 235.32 11.57Q236 11.10 236.95 11.10Q237.50 11.10 238.18 11.22Q238.85 11.35 239.50 11.30Q239.20 11.60 238.28 13.02Q237.35 14.45 236.10 16.65Q234.85 18.85 233.43 21.47Q232 24.10 230.63 26.77Q229.25 29.45 228.07 31.82Q226.90 34.20 226.20 35.90Q226 36.30 225.63 37.52Q225.25 38.75 225.25 39.65Q225.25 40.30 225.55 40.77Q225.85 41.25 226.55 41.25Q227.50 41.25 228.47 40.27Q229.45 39.30 230.35 37.88Q231.25 36.45 231.95 35.07Q232.65 33.70 233 32.90Q233.25 32.35 233.60 32.35Q233.90 32.35 233.90 32.80Q233.90 32.85 233.90 32.97Q233.90 33.10 233.80 33.25Q233.35 34.30 232.57 35.85Q231.80 37.40 230.75 38.95Q229.70 40.50 228.40 41.52Q227.10 42.55 225.60 42.55M216.95 41.05Q217.65 41.05 218.70 40.27Q219.75 39.50 220.95 37.80Q222.35 35.80 224.15 32.80Q225.95 29.80 227.70 26.45Q227.05 25.85 226.20 25.85Q224.80 25.85 223.07 27.15Q221.35 28.45 219.72 30.45Q218.10 32.45 217 34.50Q216.25 35.90 215.93 37.05Q215.60 38.20 215.60 39.05Q215.60 41.05 216.95 41.05Z"/></g></g></svg>